<mxfile host="app.diagrams.net" modified="2024-03-12T12:04:49.085Z" agent="Mozilla/5.0 (Windows NT 10.0; Win64; x64) AppleWebKit/537.36 (KHTML, like Gecko) Chrome/122.0.0.0 Safari/537.36" version="24.0.5" etag="bt58gg-IvaX3vqQhTE7o" type="github">
  <diagram name="PÃ¡gina-1" id="VNEzm0Ylr58ajTf--ry7">
    <mxGraphModel>
      <root>
        <mxCell id="0" />
        <mxCell id="1" parent="0" />
      </root>
    </mxGraphModel>
  </diagram>
</mxfile>
